<svg>
  <symbol id="courses" width="24px" height="24px" viewBox="0 0 24 24" fill="none" xmlns="http://www.w3.org/2000/svg">
    <path d="M11.8658 3.26833L3.10854 20.7829C3.05867 20.8827 3.1312 21 3.2427 21H20.7573C20.8688 21 20.9413 20.8827 20.8915 20.7829L12.1342 3.26833C12.0789 3.15777 11.9211 3.15777 11.8658 3.26833Z" stroke="currentColor" stroke-linecap="round"/>
    <path d="M19 17H5" stroke="currentColor" stroke-linecap="round"/>
    <path d="M17 13H7" stroke="currentColor" stroke-linecap="round"/>
    <path d="M15 9H9" stroke="currentColor" stroke-linecap="round"/>
  </symbol>

  <symbol id="lightning" fill="currentColor" width="32px" height="32px" viewBox="0 0 32 32" version="1.1" xmlns="http://www.w3.org/2000/svg">
    <path d="M23.5 13.187h-7.5v-12.187l-7.5 17.813h7.5v12.187l7.5-17.813z"></path>
  </symbol>

  <symbol id="Login" width="24px" height="24px" viewBox="0 0 24 24" fill="none" xmlns="http://www.w3.org/2000/svg">
    <path fill-rule="evenodd" clip-rule="evenodd" d="M8 6C8 3.79086 9.79086 2 12 2H17.5C19.9853 2 22 4.01472 22 6.5V17.5C22 19.9853 19.9853 22 17.5 22H12C9.79086 22 8 20.2091 8 18V17C8 16.4477 8.44772 16 9 16C9.55228 16 10 16.4477 10 17V18C10 19.1046 10.8954 20 12 20H17.5C18.8807 20 20 18.8807 20 17.5V6.5C20 5.11929 18.8807 4 17.5 4H12C10.8954 4 10 4.89543 10 6V7C10 7.55228 9.55228 8 9 8C8.44772 8 8 7.55228 8 7V6ZM12.2929 8.29289C12.6834 7.90237 13.3166 7.90237 13.7071 8.29289L16.7071 11.2929C17.0976 11.6834 17.0976 12.3166 16.7071 12.7071L13.7071 15.7071C13.3166 16.0976 12.6834 16.0976 12.2929 15.7071C11.9024 15.3166 11.9024 14.6834 12.2929 14.2929L13.5858 13L5 13C4.44772 13 4 12.5523 4 12C4 11.4477 4.44772 11 5 11L13.5858 11L12.2929 9.70711C11.9024 9.31658 11.9024 8.68342 12.2929 8.29289Z" fill="currentColor"/>
  </symbol>


  <symbol id="profession" fill="currentColor" width="32px" height="32px" viewBox="0 0 32 32" version="1.1" xmlns="http://www.w3.org/2000/svg">
    <path d="M30.964 21.759v-8.067l0.503-0.265c0.327-0.17 0.533-0.507 0.537-0.876s-0.195-0.709-0.518-0.886l-15.045-8.050c-0.301-0.165-0.665-0.164-0.968 0.003l-14.963 8.060c-0.319 0.178-0.515 0.514-0.513 0.88s0.203 0.7 0.525 0.874l6.574 3.499c-0.082 0.145-0.133 0.311-0.133 0.49v8.462c0 0.285 0.122 0.558 0.335 0.747 0.217 0.192 2.295 1.878 8.648 1.878 6.331 0 8.465-1.593 8.688-1.774 0.233-0.189 0.367-0.474 0.367-0.774v-8.679c0-0.14-0.029-0.274-0.081-0.395l4.044-2.136v7.016c-0.593 0.347-0.995 0.983-0.995 1.719 0 1.105 0.895 2 2 2s2-0.895 2-2c0-0.741-0.407-1.38-1.005-1.725zM23.001 25.387c-0.786 0.378-2.866 1.122-7.055 1.122-4.215 0-6.248-0.792-6.983-1.173v-7.41l6.494 3.457c0.148 0.080 0.312 0.12 0.475 0.12 0.159 0 0.318-0.038 0.463-0.114l6.607-3.489v7.488zM15.939 19.369l-12.863-6.83 12.885-6.905 12.925 6.886z"></path>
  </symbol>

  <symbol id="reg" width="24px" height="24px" viewBox="0 0 24 24" fill="none" xmlns="http://www.w3.org/2000/svg">
    <path clip-rule="evenodd" d="m6.75001 7c0-1.79493 1.45508-3.25 3.24999-3.25 1.7949 0 3.25 1.45507 3.25 3.25s-1.4551 3.25-3.25 3.25c-1.79491 0-3.24999-1.45507-3.24999-3.25zm3.24999-4.75c-2.62334 0-4.74999 2.12665-4.74999 4.75s2.12665 4.75 4.74999 4.75c2.6234 0 4.75-2.12665 4.75-4.75s-2.1266-4.75-4.75-4.75zm-5.6865 16.1524c.98693-2.1566 3.16283-3.6524 5.6865-3.6524 2.5237 0 4.6996 1.4958 5.6865 3.6524.2078.4542.1134.8704-.1871 1.2142-.3195.3656-.873.6334-1.4994.6334h-7.99999c-.6264 0-1.17984-.2678-1.49941-.6334-.30047-.3438-.39492-.76-.1871-1.2142zm5.6865-5.1524c-3.13193 0-5.82838 1.8578-7.05046 4.5282-.48164 1.0525-.22026 2.0911.42167 2.8255.62282.7126 1.59835 1.1463 2.6288 1.1463h7.99999c1.0305 0 2.006-.4337 2.6288-1.1463.642-.7344.9033-1.773.4217-2.8255-1.2221-2.6704-3.9185-4.5282-7.0505-4.5282zm8-5c.4142 0 .75.33579.75.75v2.25h2.25c.4142 0 .75.3358.75.75s-.3358.75-.75.75h-2.25v2.25c0 .4142-.3358.75-.75.75s-.75-.3358-.75-.75v-2.25h-2.25c-.4142 0-.75-.3358-.75-.75s.3358-.75.75-.75h2.25v-2.25c0-.41421.3358-.75.75-.75z" fill="currentColor" fill-rule="evenodd"/>
  </symbol>
</svg>
